ffmpeg started on 2026-01-14 at 14:00:46
Report written to "D:\Convert\FFMetrics\reports\ssim_report-6.txt"
Log level: 32
Command line:
ffmpeg -hide_banner -nostdin -r 24000/1001 -i "F:\\Convert\\files\\[DC] Make Heroine ga Oosugiru - 07_Telegram_HEVC(129).mkv" -r 24000/1001 -i "F:\\Convert\\files\\[DC] Make Heroine ga Oosugiru - 07_Telegram.mp4" -lavfi "[0:v]settb=AVTB,setpts=PTS-STARTPTS,format=pix_fmts=yuv420p10le,fps=24000/1001,scale=1920:1080:flags=lanczos:param0=3:out_range=limited:out_color_matrix=bt709:out_chroma_loc=left,setsar=1/1,setdar=(1920/1080)*(1/1),colorspace=format=yuv420p10:range=tv:primaries=bt709:trc=bt709:space=bt709:fast=0[main];[1:v]settb=AVTB,setpts=PTS-STARTPTS,format=pix_fmts=yuv420p,fps=24000/1001,scale=1920:1080:flags=lanczos:param0=3:out_range=limited:out_color_matrix=bt709:out_chroma_loc=left,setsar=1.000,setdar=1.778,colorspace=format=yuv420p:range=tv:primaries=bt709:trc=bt709:space=bt709:fast=0[ref];[main][ref]ssim=eof_action=endall:stats_file='D\\:/Convert/FFMetrics/logs/ssim_logfile-6.txt'" -f null -
Input #0, matroska,webm, from 'F:\Convert\files\[DC] Make Heroine ga Oosugiru - 07_Telegram_HEVC(129).mkv':
  Metadata:
    COMPATIBLE_BRANDS: isomiso2avc1mp41
    MAJOR_BRAND     : isom
    MINOR_VERSION   : 512
    ENCODER         : Lavf61.7.100
  Duration: 00:24:06.79, start: -0.021000, bitrate: 978 kb/s
  Stream #0:0: Video: hevc (Main 10), yuv420p10le(tv, bt709, progressive), 1920x1080 [SAR 1:1 DAR 16:9], 23.98 fps, 23.98 tbr, 1k tbn (default)
      Metadata:
        HANDLER_NAME    : VideoHandler
        VENDOR_ID       : [0][0][0][0]
        ENCODER         : Lavc61.19.100 libx265
        BPS             : 781397
        DURATION        : 00:24:06.569708333
        NUMBER_OF_FRAMES: 34683
        NUMBER_OF_BYTES : 141293156
        _STATISTICS_WRITING_APP: mkvpropedit v94.0 ('Initiate') 64-bit
        _STATISTICS_WRITING_DATE_UTC: 2026-01-14 08:47:08
        _STATISTICS_TAGS: BPS DURATION NUMBER_OF_FRAMES NUMBER_OF_BYTES
  Stream #0:1: Audio: aac (LC), 48000 Hz, stereo, fltp (default)
      Metadata:
        HANDLER_NAME    : SoundHandler
        VENDOR_ID       : [0][0][0][0]
        ENCODER         : Lavc61.19.100 aac
        BPS             : 193194
        DURATION        : 00:24:06.784000000
        NUMBER_OF_FRAMES: 67819
        NUMBER_OF_BYTES : 34938755
        _STATISTICS_WRITING_APP: mkvpropedit v94.0 ('Initiate') 64-bit
        _STATISTICS_WRITING_DATE_UTC: 2026-01-14 08:47:08
        _STATISTICS_TAGS: BPS DURATION NUMBER_OF_FRAMES NUMBER_OF_BYTES
Input #1, mov,mp4,m4a,3gp,3g2,mj2, from 'F:\Convert\files\[DC] Make Heroine ga Oosugiru - 07_Telegram.mp4':
  Metadata:
    major_brand     : isom
    minor_version   : 512
    compatible_brands: isomiso2avc1mp41
    encoder         : Lavf60.16.100
  Duration: 00:24:06.74, start: 0.000000, bitrate: 3764 kb/s
  Stream #1:0[0x1](und): Video: h264 (High) (avc1 / 0x31637661), yuv420p(tv, bt709, progressive), 1920x1080 [SAR 1:1 DAR 16:9], 3616 kb/s, 23.98 fps, 23.98 tbr, 24k tbn (default)
      Metadata:
        handler_name    : VideoHandler
        vendor_id       : [0][0][0][0]
        encoder         : Lavc60.31.102 h264_qsv
  Stream #1:1[0x2](und): Audio: aac (HE-AACv2) (mp4a / 0x6134706D), 48000 Hz, stereo, fltp, 144 kb/s (default)
      Metadata:
        handler_name    : SoundHandler
        vendor_id       : [0][0][0][0]
Stream mapping:
  Stream #0:0 (hevc) -> settb:default
  Stream #1:0 (h264) -> settb:default
  ssim:default -> Stream #0:0 (wrapped_avframe)
  Stream #0:1 -> #0:1 (aac (native) -> pcm_s16le (native))
Output #0, null, to 'pipe:':
  Metadata:
    COMPATIBLE_BRANDS: isomiso2avc1mp41
    MAJOR_BRAND     : isom
    MINOR_VERSION   : 512
    encoder         : Lavf61.7.100
  Stream #0:0: Video: wrapped_avframe, yuv420p10le(tv, bt709, progressive), 1920x1080 [SAR 1:1 DAR 16:9], q=2-31, 200 kb/s, 23.98 fps, 23.98 tbn
      Metadata:
        encoder         : Lavc61.19.100 wrapped_avframe
  Stream #0:1: Audio: pcm_s16le, 48000 Hz, stereo, s16, 1536 kb/s (default)
      Metadata:
        HANDLER_NAME    : SoundHandler
        VENDOR_ID       : [0][0][0][0]
        _STATISTICS_TAGS: BPS DURATION NUMBER_OF_FRAMES NUMBER_OF_BYTES
        BPS             : 193194
        DURATION        : 00:24:06.784000000
        NUMBER_OF_FRAMES: 67819
        NUMBER_OF_BYTES : 34938755
        _STATISTICS_WRITING_APP: mkvpropedit v94.0 ('Initiate') 64-bit
        _STATISTICS_WRITING_DATE_UTC: 2026-01-14 08:47:08
        encoder         : Lavc61.19.100 pcm_s16le
frame=  126 fps=0.0 q=-0.0 size=N/A time=00:00:05.25 bitrate=N/A speed=10.3x    frame=  297 fps=292 q=-0.0 size=N/A time=00:00:12.38 bitrate=N/A speed=12.2x    frame=  474 fps=306 q=-0.0 size=N/A time=00:00:19.76 bitrate=N/A speed=12.8x    frame=  651 fps=317 q=-0.0 size=N/A time=00:00:27.15 bitrate=N/A speed=13.2x    frame=  826 fps=322 q=-0.0 size=N/A time=00:00:34.45 bitrate=N/A speed=13.4x    frame=  964 fps=312 q=-0.0 size=N/A time=00:00:40.20 bitrate=N/A speed=  13x    frame= 1112 fps=309 q=-0.0 size=N/A time=00:00:46.37 bitrate=N/A speed=12.9x    frame= 1271 fps=309 q=-0.0 size=N/A time=00:00:53.01 bitrate=N/A speed=12.9x    frame= 1425 fps=307 q=-0.0 size=N/A time=00:00:59.43 bitrate=N/A speed=12.8x    frame= 1555 fps=302 q=-0.0 size=N/A time=00:01:04.85 bitrate=N/A speed=12.6x    frame= 1702 fps=300 q=-0.0 size=N/A time=00:01:10.98 bitrate=N/A speed=12.5x    frame= 1863 fps=301 q=-0.0 size=N/A time=00:01:17.70 bitrate=N/A speed=12.6x    frame= 2028 fps=302 q=-0.0 size=N/A time=00:01:24.58 bitrate=N/A speed=12.6x    frame= 2124 fps=294 q=-0.0 size=N/A time=00:01:28.58 bitrate=N/A speed=12.3x    frame= 2277 fps=294 q=-0.0 size=N/A time=00:01:34.96 bitrate=N/A speed=12.3x    frame= 2415 fps=293 q=-0.0 size=N/A time=00:01:40.72 bitrate=N/A speed=12.2x    frame= 2548 fps=290 q=-0.0 size=N/A time=00:01:46.27 bitrate=N/A speed=12.1x    frame= 2699 fps=291 q=-0.0 size=N/A time=00:01:52.57 bitrate=N/A speed=12.1x    frame= 2868 fps=292 q=-0.0 size=N/A time=00:01:59.61 bitrate=N/A speed=12.2x    frame= 3034 fps=294 q=-0.0 size=N/A time=00:02:06.54 bitrate=N/A speed=12.3x    frame= 3207 fps=296 q=-0.0 size=N/A time=00:02:13.75 bitrate=N/A speed=12.3x    frame= 3388 fps=298 q=-0.0 size=N/A time=00:02:21.30 bitrate=N/A speed=12.4x    frame= 3566 fps=300 q=-0.0 size=N/A time=00:02:28.73 bitrate=N/A speed=12.5x    frame= 3747 fps=302 q=-0.0 size=N/A time=00:02:36.28 bitrate=N/A speed=12.6x    frame= 3921 fps=304 q=-0.0 size=N/A time=00:02:43.53 bitrate=N/A speed=12.7x    frame= 4095 fps=305 q=-0.0 size=N/A time=00:02:50.79 bitrate=N/A speed=12.7x    frame= 4274 fps=307 q=-0.0 size=N/A time=00:02:58.26 bitrate=N/A speed=12.8x    frame= 4449 fps=308 q=-0.0 size=N/A time=00:03:05.56 bitrate=N/A speed=12.8x    frame= 4623 fps=309 q=-0.0 size=N/A time=00:03:12.81 bitrate=N/A speed=12.9x    frame= 4799 fps=310 q=-0.0 size=N/A time=00:03:20.15 bitrate=N/A speed=12.9x    frame= 4973 fps=311 q=-0.0 size=N/A time=00:03:27.41 bitrate=N/A speed=  13x    frame= 5147 fps=311 q=-0.0 size=N/A time=00:03:34.67 bitrate=N/A speed=  13x    frame= 5320 fps=312 q=-0.0 size=N/A time=00:03:41.93 bitrate=N/A speed=  13x    frame= 5492 fps=313 q=-0.0 size=N/A time=00:03:49.06 bitrate=N/A speed=  13x    frame= 5667 fps=314 q=-0.0 size=N/A time=00:03:56.36 bitrate=N/A speed=13.1x    frame= 5840 fps=314 q=-0.0 size=N/A time=00:04:03.57 bitrate=N/A speed=13.1x    frame= 6009 fps=315 q=-0.0 size=N/A time=00:04:10.62 bitrate=N/A speed=13.1x    frame= 6189 fps=315 q=-0.0 size=N/A time=00:04:18.13 bitrate=N/A speed=13.2x    frame= 6368 fps=316 q=-0.0 size=N/A time=00:04:25.59 bitrate=N/A speed=13.2x    frame= 6544 fps=317 q=-0.0 size=N/A time=00:04:32.93 bitrate=N/A speed=13.2x    frame= 6722 fps=318 q=-0.0 size=N/A time=00:04:40.36 bitrate=N/A speed=13.2x    frame= 6898 fps=318 q=-0.0 size=N/A time=00:04:47.70 bitrate=N/A speed=13.3x    frame= 7080 fps=319 q=-0.0 size=N/A time=00:04:55.29 bitrate=N/A speed=13.3x    frame= 7243 fps=319 q=-0.0 size=N/A time=00:05:02.09 bitrate=N/A speed=13.3x    frame= 7422 fps=320 q=-0.0 size=N/A time=00:05:09.55 bitrate=N/A speed=13.3x    frame= 7591 fps=320 q=-0.0 size=N/A time=00:05:16.60 bitrate=N/A speed=13.3x    frame= 7757 fps=320 q=-0.0 size=N/A time=00:05:23.53 bitrate=N/A speed=13.3x    frame= 7923 fps=320 q=-0.0 size=N/A time=00:05:30.45 bitrate=N/A speed=13.3x    frame= 8097 fps=320 q=-0.0 size=N/A time=00:05:37.71 bitrate=N/A speed=13.4x    frame= 8271 fps=321 q=-0.0 size=N/A time=00:05:44.96 bitrate=N/A speed=13.4x    frame= 8446 fps=321 q=-0.0 size=N/A time=00:05:52.26 bitrate=N/A speed=13.4x    frame= 8614 fps=321 q=-0.0 size=N/A time=00:05:59.27 bitrate=N/A speed=13.4x    frame= 8784 fps=321 q=-0.0 size=N/A time=00:06:06.36 bitrate=N/A speed=13.4x    frame= 8942 fps=321 q=-0.0 size=N/A time=00:06:12.95 bitrate=N/A speed=13.4x    frame= 9099 fps=320 q=-0.0 size=N/A time=00:06:19.50 bitrate=N/A speed=13.4x    frame= 9259 fps=320 q=-0.0 size=N/A time=00:06:26.17 bitrate=N/A speed=13.4x    frame= 9416 fps=320 q=-0.0 size=N/A time=00:06:32.72 bitrate=N/A speed=13.4x    frame= 9576 fps=320 q=-0.0 size=N/A time=00:06:39.39 bitrate=N/A speed=13.3x    frame= 9743 fps=320 q=-0.0 size=N/A time=00:06:46.36 bitrate=N/A speed=13.3x    frame= 9891 fps=319 q=-0.0 size=N/A time=00:06:52.53 bitrate=N/A speed=13.3x    frame=10033 fps=319 q=-0.0 size=N/A time=00:06:58.45 bitrate=N/A speed=13.3x    frame=10172 fps=318 q=-0.0 size=N/A time=00:07:04.25 bitrate=N/A speed=13.3x    frame=10314 fps=317 q=-0.0 size=N/A time=00:07:10.17 bitrate=N/A speed=13.2x    frame=10450 fps=316 q=-0.0 size=N/A time=00:07:15.85 bitrate=N/A speed=13.2x    frame=10581 fps=316 q=-0.0 size=N/A time=00:07:21.31 bitrate=N/A speed=13.2x    frame=10716 fps=315 q=-0.0 size=N/A time=00:07:26.94 bitrate=N/A speed=13.1x    frame=10827 fps=313 q=-0.0 size=N/A time=00:07:31.57 bitrate=N/A speed=13.1x    frame=10969 fps=313 q=-0.0 size=N/A time=00:07:37.49 bitrate=N/A speed=  13x    frame=11122 fps=312 q=-0.0 size=N/A time=00:07:43.88 bitrate=N/A speed=  13x    frame=11266 fps=312 q=-0.0 size=N/A time=00:07:49.88 bitrate=N/A speed=  13x    frame=11417 fps=312 q=-0.0 size=N/A time=00:07:56.18 bitrate=N/A speed=  13x    frame=11586 fps=312 q=-0.0 size=N/A time=00:08:03.23 bitrate=N/A speed=  13x    frame=11730 fps=311 q=-0.0 size=N/A time=00:08:09.23 bitrate=N/A speed=  13x    frame=11904 fps=312 q=-0.0 size=N/A time=00:08:16.49 bitrate=N/A speed=  13x    frame=12076 fps=312 q=-0.0 size=N/A time=00:08:23.66 bitrate=N/A speed=  13x    frame=12262 fps=313 q=-0.0 size=N/A time=00:08:31.42 bitrate=N/A speed=  13x    frame=12448 fps=313 q=-0.0 size=N/A time=00:08:39.18 bitrate=N/A speed=13.1x    frame=12596 fps=313 q=-0.0 size=N/A time=00:08:45.35 bitrate=N/A speed=13.1x    frame=12756 fps=313 q=-0.0 size=N/A time=00:08:52.03 bitrate=N/A speed=  13x    frame=12916 fps=313 q=-0.0 size=N/A time=00:08:58.70 bitrate=N/A speed=  13x    frame=13081 fps=313 q=-0.0 size=N/A time=00:09:05.58 bitrate=N/A speed=13.1x    frame=13252 fps=313 q=-0.0 size=N/A time=00:09:12.71 bitrate=N/A speed=13.1x    frame=13421 fps=313 q=-0.0 size=N/A time=00:09:19.76 bitrate=N/A speed=13.1x    frame=13595 fps=314 q=-0.0 size=N/A time=00:09:27.02 bitrate=N/A speed=13.1x    frame=13765 fps=314 q=-0.0 size=N/A time=00:09:34.11 bitrate=N/A speed=13.1x    frame=13932 fps=314 q=-0.0 size=N/A time=00:09:41.08 bitrate=N/A speed=13.1x    frame=14094 fps=314 q=-0.0 size=N/A time=00:09:47.83 bitrate=N/A speed=13.1x    frame=14269 fps=314 q=-0.0 size=N/A time=00:09:55.13 bitrate=N/A speed=13.1x    frame=14439 fps=314 q=-0.0 size=N/A time=00:10:02.22 bitrate=N/A speed=13.1x    frame=14613 fps=315 q=-0.0 size=N/A time=00:10:09.48 bitrate=N/A speed=13.1x    frame=14803 fps=315 q=-0.0 size=N/A time=00:10:17.40 bitrate=N/A speed=13.1x    frame=14980 fps=315 q=-0.0 size=N/A time=00:10:24.79 bitrate=N/A speed=13.2x    frame=15146 fps=316 q=-0.0 size=N/A time=00:10:31.71 bitrate=N/A speed=13.2x    frame=15320 fps=316 q=-0.0 size=N/A time=00:10:38.97 bitrate=N/A speed=13.2x    frame=15503 fps=316 q=-0.0 size=N/A time=00:10:46.60 bitrate=N/A speed=13.2x    frame=15674 fps=316 q=-0.0 size=N/A time=00:10:53.73 bitrate=N/A speed=13.2x    frame=15847 fps=317 q=-0.0 size=N/A time=00:11:00.95 bitrate=N/A speed=13.2x    frame=16025 fps=317 q=-0.0 size=N/A time=00:11:08.37 bitrate=N/A speed=13.2x    frame=16202 fps=317 q=-0.0 size=N/A time=00:11:15.75 bitrate=N/A speed=13.2x    frame=16367 fps=317 q=-0.0 size=N/A time=00:11:22.64 bitrate=N/A speed=13.2x    frame=16537 fps=317 q=-0.0 size=N/A time=00:11:29.73 bitrate=N/A speed=13.2x    frame=16712 fps=317 q=-0.0 size=N/A time=00:11:37.02 bitrate=N/A speed=13.2x    frame=16875 fps=317 q=-0.0 size=N/A time=00:11:43.82 bitrate=N/A speed=13.2x    frame=17043 fps=318 q=-0.0 size=N/A time=00:11:50.83 bitrate=N/A speed=13.2x    frame=17215 fps=318 q=-0.0 size=N/A time=00:11:58.00 bitrate=N/A speed=13.2x    frame=17395 fps=318 q=-0.0 size=N/A time=00:12:05.51 bitrate=N/A speed=13.3x    frame=17554 fps=318 q=-0.0 size=N/A time=00:12:12.14 bitrate=N/A speed=13.3x    frame=17724 fps=318 q=-0.0 size=N/A time=00:12:19.23 bitrate=N/A speed=13.3x    frame=17894 fps=318 q=-0.0 size=N/A time=00:12:26.32 bitrate=N/A speed=13.3x    frame=18078 fps=318 q=-0.0 size=N/A time=00:12:34.00 bitrate=N/A speed=13.3x    frame=18241 fps=318 q=-0.0 size=N/A time=00:12:40.80 bitrate=N/A speed=13.3x    frame=18403 fps=318 q=-0.0 size=N/A time=00:12:47.55 bitrate=N/A speed=13.3x    frame=18585 fps=319 q=-0.0 size=N/A time=00:12:55.14 bitrate=N/A speed=13.3x    frame=18770 fps=319 q=-0.0 size=N/A time=00:13:02.86 bitrate=N/A speed=13.3x    frame=18956 fps=319 q=-0.0 size=N/A time=00:13:10.62 bitrate=N/A speed=13.3x    frame=19136 fps=320 q=-0.0 size=N/A time=00:13:18.13 bitrate=N/A speed=13.3x    frame=19311 fps=320 q=-0.0 size=N/A time=00:13:25.42 bitrate=N/A speed=13.3x    frame=19497 fps=320 q=-0.0 size=N/A time=00:13:33.18 bitrate=N/A speed=13.3x    frame=19666 fps=320 q=-0.0 size=N/A time=00:13:40.23 bitrate=N/A speed=13.4x    frame=19854 fps=321 q=-0.0 size=N/A time=00:13:48.07 bitrate=N/A speed=13.4x    frame=20035 fps=321 q=-0.0 size=N/A time=00:13:55.62 bitrate=N/A speed=13.4x    frame=20217 fps=321 q=-0.0 size=N/A time=00:14:03.21 bitrate=N/A speed=13.4x    frame=20392 fps=321 q=-0.0 size=N/A time=00:14:10.51 bitrate=N/A speed=13.4x    frame=20560 fps=321 q=-0.0 size=N/A time=00:14:17.52 bitrate=N/A speed=13.4x    frame=20735 fps=321 q=-0.0 size=N/A time=00:14:24.82 bitrate=N/A speed=13.4x    frame=20910 fps=322 q=-0.0 size=N/A time=00:14:32.12 bitrate=N/A speed=13.4x    frame=21095 fps=322 q=-0.0 size=N/A time=00:14:39.83 bitrate=N/A speed=13.4x    frame=21265 fps=322 q=-0.0 size=N/A time=00:14:46.92 bitrate=N/A speed=13.4x    frame=21444 fps=322 q=-0.0 size=N/A time=00:14:54.39 bitrate=N/A speed=13.4x    frame=21622 fps=322 q=-0.0 size=N/A time=00:15:01.81 bitrate=N/A speed=13.4x    frame=21800 fps=322 q=-0.0 size=N/A time=00:15:09.24 bitrate=N/A speed=13.4x    frame=21980 fps=323 q=-0.0 size=N/A time=00:15:16.74 bitrate=N/A speed=13.5x    frame=22149 fps=323 q=-0.0 size=N/A time=00:15:23.79 bitrate=N/A speed=13.5x    frame=22331 fps=323 q=-0.0 size=N/A time=00:15:31.38 bitrate=N/A speed=13.5x    frame=22509 fps=323 q=-0.0 size=N/A time=00:15:38.81 bitrate=N/A speed=13.5x    frame=22684 fps=323 q=-0.0 size=N/A time=00:15:46.11 bitrate=N/A speed=13.5x    frame=22856 fps=323 q=-0.0 size=N/A time=00:15:53.28 bitrate=N/A speed=13.5x    frame=23031 fps=323 q=-0.0 size=N/A time=00:16:00.58 bitrate=N/A speed=13.5x    frame=23212 fps=323 q=-0.0 size=N/A time=00:16:08.13 bitrate=N/A speed=13.5x    frame=23392 fps=324 q=-0.0 size=N/A time=00:16:15.64 bitrate=N/A speed=13.5x    frame=23578 fps=324 q=-0.0 size=N/A time=00:16:23.39 bitrate=N/A speed=13.5x    frame=23755 fps=324 q=-0.0 size=N/A time=00:16:30.78 bitrate=N/A speed=13.5x    frame=23938 fps=324 q=-0.0 size=N/A time=00:16:38.41 bitrate=N/A speed=13.5x    frame=24117 fps=324 q=-0.0 size=N/A time=00:16:45.87 bitrate=N/A speed=13.5x    frame=24291 fps=324 q=-0.0 size=N/A time=00:16:53.13 bitrate=N/A speed=13.5x    frame=24475 fps=325 q=-0.0 size=N/A time=00:17:00.81 bitrate=N/A speed=13.5x    frame=24650 fps=325 q=-0.0 size=N/A time=00:17:08.11 bitrate=N/A speed=13.5x    frame=24841 fps=325 q=-0.0 size=N/A time=00:17:16.07 bitrate=N/A speed=13.6x    frame=25032 fps=325 q=-0.0 size=N/A time=00:17:24.04 bitrate=N/A speed=13.6x    frame=25213 fps=326 q=-0.0 size=N/A time=00:17:31.59 bitrate=N/A speed=13.6x    frame=25396 fps=326 q=-0.0 size=N/A time=00:17:39.22 bitrate=N/A speed=13.6x    frame=25578 fps=326 q=-0.0 size=N/A time=00:17:46.81 bitrate=N/A speed=13.6x    frame=25764 fps=326 q=-0.0 size=N/A time=00:17:54.57 bitrate=N/A speed=13.6x    frame=25951 fps=326 q=-0.0 size=N/A time=00:18:02.37 bitrate=N/A speed=13.6x    frame=26137 fps=327 q=-0.0 size=N/A time=00:18:10.13 bitrate=N/A speed=13.6x    frame=26319 fps=327 q=-0.0 size=N/A time=00:18:17.72 bitrate=N/A speed=13.6x    frame=26505 fps=327 q=-0.0 size=N/A time=00:18:25.47 bitrate=N/A speed=13.6x    frame=26698 fps=327 q=-0.0 size=N/A time=00:18:33.52 bitrate=N/A speed=13.6x    frame=26887 fps=327 q=-0.0 size=N/A time=00:18:41.41 bitrate=N/A speed=13.7x    frame=27060 fps=328 q=-0.0 size=N/A time=00:18:48.62 bitrate=N/A speed=13.7x    frame=27232 fps=328 q=-0.0 size=N/A time=00:18:55.80 bitrate=N/A speed=13.7x    frame=27410 fps=328 q=-0.0 size=N/A time=00:19:03.22 bitrate=N/A speed=13.7x    frame=27589 fps=328 q=-0.0 size=N/A time=00:19:10.69 bitrate=N/A speed=13.7x    frame=27767 fps=328 q=-0.0 size=N/A time=00:19:18.11 bitrate=N/A speed=13.7x    frame=27941 fps=328 q=-0.0 size=N/A time=00:19:25.37 bitrate=N/A speed=13.7x    frame=28107 fps=328 q=-0.0 size=N/A time=00:19:32.29 bitrate=N/A speed=13.7x    frame=28284 fps=328 q=-0.0 size=N/A time=00:19:39.67 bitrate=N/A speed=13.7x    frame=28454 fps=328 q=-0.0 size=N/A time=00:19:46.76 bitrate=N/A speed=13.7x    frame=28631 fps=328 q=-0.0 size=N/A time=00:19:54.15 bitrate=N/A speed=13.7x    frame=28774 fps=328 q=-0.0 size=N/A time=00:20:00.11 bitrate=N/A speed=13.7x    frame=28933 fps=328 q=-0.0 size=N/A time=00:20:06.74 bitrate=N/A speed=13.7x    frame=29090 fps=328 q=-0.0 size=N/A time=00:20:13.29 bitrate=N/A speed=13.7x    frame=29257 fps=328 q=-0.0 size=N/A time=00:20:20.26 bitrate=N/A speed=13.7x    frame=29426 fps=328 q=-0.0 size=N/A time=00:20:27.30 bitrate=N/A speed=13.7x    frame=29603 fps=328 q=-0.0 size=N/A time=00:20:34.69 bitrate=N/A speed=13.7x    frame=29771 fps=328 q=-0.0 size=N/A time=00:20:41.69 bitrate=N/A speed=13.7x    frame=29939 fps=328 q=-0.0 size=N/A time=00:20:48.70 bitrate=N/A speed=13.7x    frame=30103 fps=328 q=-0.0 size=N/A time=00:20:55.54 bitrate=N/A speed=13.7x    frame=30280 fps=328 q=-0.0 size=N/A time=00:21:02.92 bitrate=N/A speed=13.7x    frame=30443 fps=328 q=-0.0 size=N/A time=00:21:09.72 bitrate=N/A speed=13.7x    frame=30604 fps=328 q=-0.0 size=N/A time=00:21:16.44 bitrate=N/A speed=13.7x    frame=30761 fps=327 q=-0.0 size=N/A time=00:21:22.99 bitrate=N/A speed=13.7x    frame=30945 fps=328 q=-0.0 size=N/A time=00:21:30.66 bitrate=N/A speed=13.7x    frame=31127 fps=328 q=-0.0 size=N/A time=00:21:38.25 bitrate=N/A speed=13.7x    frame=31310 fps=328 q=-0.0 size=N/A time=00:21:45.88 bitrate=N/A speed=13.7x    frame=31494 fps=328 q=-0.0 size=N/A time=00:21:53.56 bitrate=N/A speed=13.7x    frame=31671 fps=328 q=-0.0 size=N/A time=00:22:00.94 bitrate=N/A speed=13.7x    frame=31841 fps=328 q=-0.0 size=N/A time=00:22:08.03 bitrate=N/A speed=13.7x    frame=32000 fps=328 q=-0.0 size=N/A time=00:22:14.66 bitrate=N/A speed=13.7x    frame=32180 fps=328 q=-0.0 size=N/A time=00:22:22.17 bitrate=N/A speed=13.7x    frame=32350 fps=328 q=-0.0 size=N/A time=00:22:29.26 bitrate=N/A speed=13.7x    frame=32516 fps=328 q=-0.0 size=N/A time=00:22:36.18 bitrate=N/A speed=13.7x    frame=32662 fps=328 q=-0.0 size=N/A time=00:22:42.27 bitrate=N/A speed=13.7x    frame=32806 fps=328 q=-0.0 size=N/A time=00:22:48.28 bitrate=N/A speed=13.7x    frame=32980 fps=328 q=-0.0 size=N/A time=00:22:55.54 bitrate=N/A speed=13.7x    frame=33152 fps=328 q=-0.0 size=N/A time=00:23:02.71 bitrate=N/A speed=13.7x    frame=33330 fps=328 q=-0.0 size=N/A time=00:23:10.13 bitrate=N/A speed=13.7x    frame=33494 fps=328 q=-0.0 size=N/A time=00:23:16.97 bitrate=N/A speed=13.7x    frame=33643 fps=327 q=-0.0 size=N/A time=00:23:23.19 bitrate=N/A speed=13.7x    frame=33778 fps=327 q=-0.0 size=N/A time=00:23:28.82 bitrate=N/A speed=13.6x    frame=33906 fps=327 q=-0.0 size=N/A time=00:23:34.16 bitrate=N/A speed=13.6x    frame=34068 fps=327 q=-0.0 size=N/A time=00:23:40.91 bitrate=N/A speed=13.6x    frame=34228 fps=327 q=-0.0 size=N/A time=00:23:47.59 bitrate=N/A speed=13.6x    frame=34368 fps=326 q=-0.0 size=N/A time=00:23:53.43 bitrate=N/A speed=13.6x    frame=34509 fps=326 q=-0.0 size=N/A time=00:23:59.31 bitrate=N/A speed=13.6x    [Parsed_ssim_16 @ 00000228486aa2c0] SSIM Y:0.994183 (22.353027) U:0.993987 (22.209059) V:0.993595 (21.935039) All:0.994052 (22.256582)
[out#0/null @ 000002283b1efe80] video:14903KiB audio:271276KiB subtitle:0KiB other streams:0KiB global headers:0KiB muxing overhead: unknown
frame=34683 fps=326 q=-0.0 Lsize=N/A time=00:24:06.57 bitrate=N/A speed=13.6x    
